<svg id="Layer_1" enable-background="new 0 0 512 512" height="512" viewBox="0 0 512 512" width="512" xmlns="http://www.w3.org/2000/svg"><g><g><path d="m416.78 88.5v411.05c0 6.88-5.58 12.45-12.45 12.45h-340.11c-6.87 0-12.44-5.57-12.44-12.45v-487.1c0-6.88 5.57-12.45 12.44-12.45h264.06z" fill="#d9f9f8"/><path d="m416.78 88.5v411.05c0 6.88-5.58 12.45-12.45 12.45h-340.11c-6.87 0-12.44-5.57-12.44-12.45v-17.58h312.45c11.08 0 20.05-8.98 20.05-20.05v-373.42l-56-88.5z" fill="#c1eaf4"/><path d="m416.78 88.5h-32.5l-50.23-.01c-3.19 0-5.77-2.59-5.77-5.78v-82.71c1.98 0 3.89.79 5.3 2.2l81 81c1.41 1.4 2.2 3.31 2.2 5.3z" fill="#aec9d6"/><path d="m416.78 88.5h-32.5l-56-88.5c1.98 0 3.89.79 5.3 2.2l81 81c1.41 1.4 2.2 3.31 2.2 5.3z" fill="#8fb2bc"/><path d="m460.22 285.43v160c0 4.14-3.35 7.5-7.5 7.5h-307.97c-4.14 0-7.5-3.36-7.5-7.5v-160c0-4.14 3.36-7.5 7.5-7.5h307.97c4.15 0 7.5 3.36 7.5 7.5z" fill="#ff6986"/><path d="m460.22 285.43v160c0 4.14-3.35 7.5-7.5 7.5h-307.97c-4.14 0-7.5-3.36-7.5-7.5v-12.5h295.48c4.14 0 7.5-3.36 7.5-7.5v-147.5h12.49c4.15 0 7.5 3.36 7.5 7.5z" fill="#ea3487"/><g fill="#aec9d6"><path d="m144.75 146.466h179.422c4.143 0 7.5-3.358 7.5-7.5s-3.357-7.5-7.5-7.5h-179.422c-4.143 0-7.5 3.358-7.5 7.5s3.357 7.5 7.5 7.5z"/><path d="m324.172 175.7h-179.422c-4.143 0-7.5 3.358-7.5 7.5s3.357 7.5 7.5 7.5h179.422c4.143 0 7.5-3.358 7.5-7.5s-3.358-7.5-7.5-7.5z"/><path d="m324.172 220.815h-35.447c-4.143 0-7.5 3.358-7.5 7.5s3.357 7.5 7.5 7.5h35.447c4.143 0 7.5-3.358 7.5-7.5s-3.358-7.5-7.5-7.5z"/><path d="m253.428 220.815h-108.678c-4.143 0-7.5 3.358-7.5 7.5s3.357 7.5 7.5 7.5h108.678c4.143 0 7.5-3.358 7.5-7.5s-3.358-7.5-7.5-7.5z"/></g></g><g fill="#fff"><path d="m250.3 349.013v-13.711c0-13.188-10.729-23.917-23.917-23.917h-31.759c-4.142 0-7.5 3.358-7.5 7.5v93.093c0 4.142 3.358 7.5 7.5 7.5s7.5-3.358 7.5-7.5v-39.048h24.259c13.187 0 23.917-10.729 23.917-23.917zm-15 0c0 4.917-4 8.917-8.917 8.917h-24.259v-31.546h24.259c4.917 0 8.917 4 8.917 8.917z"/><path d="m404.847 326.384c4.142 0 7.5-3.358 7.5-7.5s-3.358-7.5-7.5-7.5h-48.177c-4.142 0-7.5 3.358-7.5 7.5v93.093c0 4.142 3.358 7.5 7.5 7.5s7.5-3.358 7.5-7.5v-39.047h40.677c4.142 0 7.5-3.358 7.5-7.5s-3.358-7.5-7.5-7.5h-40.677v-31.546z"/><path d="m306.382 419.476c13.188 0 23.917-10.729 23.917-23.917v-60.258c0-13.188-10.729-23.917-23.917-23.917h-31.759c-4.142 0-7.5 3.358-7.5 7.5v93.093c0 4.142 3.358 7.5 7.5 7.5h31.759zm-24.259-93.092h24.259c4.917 0 8.917 4 8.917 8.917v60.258c0 4.917-4 8.917-8.917 8.917h-24.259z"/></g></g></svg>